<svg xmlns="http://www.w3.org/2000/svg" xmlns:xlink="http://www.w3.org/1999/xlink" viewBox="0 0 134.125 109.083" fill="#fff" fill-rule="evenodd" stroke="currentColor" stroke-linecap="round" stroke-linejoin="round"><use xlink:href="#display" x="1.042" y="1.042"/><symbol id="display" overflow="visible"><g stroke="none" fill-rule="nonzero"><path d="M1.59 0L0 83.881h129.527l.681-83.333L1.59 0z" fill="currentColor"/><path d="M9.375 8.881h112.5v54.167H9.375z" fill="#92d3f5"/><path d="M121.875 63.048V8.881l-30.571-.675 18.542 54.292z"/><path d="M62.025 94.211l-.417 12.279 9.467.221.406-13.938s-1.777-2.708-.625-2.708h-8.333c1.152 0-.475 4.167-.475 4.167z" fill="currentColor"/></g><g stroke-width="4.167"><path d="M1.042.548h129.167v83.333H1.042z" fill="none"/><path d="M96.715 106.49H36.619" fill-rule="nonzero" fill="#000"/></g><path d="M62.5 73.465a4.16 4.16 0 1 1 8.333 0 4.16 4.16 0 1 1-8.333 0z" stroke="none" fill="#92d3f5" fill-rule="nonzero"/><path d="M9.375 8.881h112.5v54.167H9.375zm61.458 83.267v13.304M62.5 92.148v13.304" fill="none" stroke-width="4.167"/></symbol></svg>