<svg xmlns="http://www.w3.org/2000/svg" xmlns:xlink="http://www.w3.org/1999/xlink" viewBox="0 0 87.125 104.125" fill="#fff" fill-rule="evenodd" stroke="currentColor" stroke-linecap="round" stroke-linejoin="round"><use xlink:href="#seoA" x="1.042" y="2.083"/><symbol id="seoA" overflow="visible"><g stroke="none" fill-rule="nonzero"><use xlink:href="#seoC"/><path d="M50.36 18.375c-3.39-4.529-11.062-9.61-16.667-10.417-3.833-.552-10.417 0-11.069 3.021 5.067.464 13.042 2.902 19.683 12.583 5.635 8.215 6.042 15.125 5.229 19.838 4.906-.025 8.629-17.267 2.823-25.025z" fill="#92d3f5"/><path d="M12.271 6.403C5.729 11.303 1.485 18.451.319 26.54s.896 16.146 5.788 22.694c10.141 13.506 29.297 16.262 42.833 6.163 13.506-10.104 16.271-29.319 6.167-42.833-4.848-6.513-12.1-10.816-20.14-11.95-8.034-1.179-16.206.906-22.694 5.79zm36.408 10.698c4.75 6.35 5.617 14.425 3.006 21.35-1.452 3.854-3.979 7.354-7.521 10.004-9.888 7.402-23.954 5.375-31.354-4.512a22.25 22.25 0 0 1-4.238-16.61 22.25 22.25 0 0 1 8.75-14.742 22.25 22.25 0 0 1 16.61-4.238 22.25 22.25 0 0 1 14.742 8.75z" fill="currentColor"/><path d="M50.36 66.292l20.833 29.167s6.25 8.333 10.417 4.167 0-10.417 0-10.417L58.693 60.042l-8.333 6.25z" fill="currentColor"/></g><g fill="none" stroke-width="4.167"><path d="M6.333 48.793a30.43 30.43 0 0 1 6.141-42.685A30.43 30.43 0 0 1 55.16 12.25a30.43 30.43 0 0 1-6.142 42.685 30.43 30.43 0 0 1-42.685-6.142z"/><use xlink:href="#seoC"/><path d="M49.694 65.85l8.717-6.525 24.36 32.546c1.74 2.325 1.2 5.671-1.208 7.473s-5.771 1.375-7.511-.948L49.694 65.85z" stroke-miterlimit="10"/></g></symbol><defs ><path id="seoC" d="M12.123 44.46C4.401 34.143 6.49 19.62 16.808 11.898s24.841-5.633 32.563 4.685 5.633 24.841-4.685 32.563-24.841 5.633-32.563-4.685z"/></defs></svg>